<svg width="42" height="47" viewBox="0 0 42 47" fill="none" xmlns="http://www.w3.org/2000/svg">
<path d="M41 46C41 42.5111 41 40.7666 40.5694 39.3471C39.5999 36.1511 37.0989 33.6501 33.9029 32.6806C32.4834 32.25 30.7389 32.25 27.25 32.25H14.75C11.2611 32.25 9.51664 32.25 8.09715 32.6806C4.90114 33.6501 2.4001 36.1511 1.4306 39.3471C1 40.7666 1 42.5111 1 46M32.25 12.25C32.25 18.4632 27.2132 23.5 21 23.5C14.7868 23.5 9.75 18.4632 9.75 12.25C9.75 6.0368 14.7868 1 21 1C27.2132 1 32.25 6.0368 32.25 12.25Z" stroke="#475467" stroke-width="2" stroke-linecap="round" stroke-linejoin="round"/>
</svg>
